<svg xmlns="http://www.w3.org/2000/svg" width="1280" height="640" fill="none" viewBox="0 0 1280 640">
  <rect width="1280" height="640" fill="#f3f4f1"/>
  <path stroke="#dfe3dc" stroke-width="1" d="M0 120h1280M0 240h1280M0 360h1280M0 480h1280M160 0v640M320 0v640M480 0v640M640 0v640M800 0v640M960 0v640M1120 0v640"/>
  <rect x="92" y="92" width="1096" height="456" rx="28" fill="#fff" stroke="#cbd1c7"/>
  <g transform="translate(160 176)">
    <rect width="160" height="160" rx="24" fill="#f5f6f3"/>
    <rect x=".5" y=".5" width="159" height="159" rx="23.5" stroke="#cbd1c7"/>
    <path stroke="#171c18" stroke-linecap="round" stroke-width="7" d="M34 50h92M34 80h92M34 110h92M56 34v92M104 34v92"/>
    <path stroke="#171c18" stroke-linecap="round" stroke-opacity=".45" stroke-width="4" d="M50 80a30 30 0 0 1 60 0M42 80a38 38 0 0 1 76 0"/>
    <circle cx="80" cy="80" r="13" fill="#244733"/>
  </g>
  <text x="380" y="246" fill="#171c18" font-family="Inter, ui-sans-serif, system-ui, -apple-system, BlinkMacSystemFont, Segoe UI, sans-serif" font-size="72" font-weight="800">DiscWeave</text>
  <text x="384" y="302" fill="#667066" font-family="Inter, ui-sans-serif, system-ui, -apple-system, BlinkMacSystemFont, Segoe UI, sans-serif" font-size="28" font-weight="650">Local-first music archive for collectors.</text>
  <text x="384" y="368" fill="#333a34" font-family="Inter, ui-sans-serif, system-ui, -apple-system, BlinkMacSystemFont, Segoe UI, sans-serif" font-size="22" font-weight="560">Releases, tracks, credits, labels, owned copies, imports, exports, and the relationships between them.</text>
  <text x="384" y="446" fill="#818a80" font-family="Inter, ui-sans-serif, system-ui, -apple-system, BlinkMacSystemFont, Segoe UI, sans-serif" font-size="16" font-weight="760" letter-spacing="2">NOT A PLAYER. NOT A SOCIAL NETWORK. AN ARCHIVE.</text>
</svg>
